<?xml version="1.0" standalone="no"?>
<svg xmlns="http://www.w3.org/2000/svg" width="512" height="552" viewBox="0 0 5120 5520"
 preserveAspectRatio="xMidYMid meet">
<g transform="translate(0,5520) scale(1,-1)"
fill="#287c8d" stroke="none">
<path d="M1385 3888 c-3 -13 -4 -133 -3 -268 l3 -245 70 0 70 0 75 151 c41 83
83 162 93 177 l18 27 557 -2 c488 -3 557 -5 556 -18 -1 -13 -529 -781 -674
-980 -26 -36 -69 -96 -95 -135 -55 -79 -281 -404 -460 -660 -65 -93 -140 -202
-167 -241 l-49 -70 3 -90 3 -89 1045 0 1045 0 3 245 c1 135 0 255 -3 268 -5
21 -10 23 -73 20 l-67 -3 -88 -172 -87 -173 -566 0 c-484 0 -565 2 -561 14 3
8 110 164 238 348 375 538 580 833 639 916 30 44 142 204 249 358 107 153 223
319 258 369 l63 90 0 77 c0 42 -3 83 -6 92 -6 14 -107 16 -1045 16 l-1039 0
-5 -22z m1863 -176 c-5 -16 -156 -238 -465 -680 -45 -64 -102 -146 -127 -182
-25 -36 -71 -102 -103 -147 -118 -167 -620 -889 -678 -974 -33 -49 -69 -91
-80 -94 -11 -3 -59 -5 -107 -3 l-87 3 254 365 c139 201 286 412 326 470 40 58
116 166 168 240 208 296 292 417 489 700 112 162 211 301 220 308 10 7 49 12
105 12 82 0 89 -2 85 -18z"/>
</g>
</svg>
